# xmcd
#
# Track frame offsets: 
#        150
#        11090
#        23065
#        36712
#        49125
#        59832
#        70415
#        83855
#        97420
#        109350
#        120900
#        133900
#        144500
#        156557
#        166675
#        178007
#        189745
#        198637
#        209300
#        220927
#        232142
#        243575
#        254440
#        265425
#        277295
#
# Disc length: 3810 seconds
#
# Revision: 2
# Processed by: cddbd v1.5.2PL0 Copyright (c) Steve Scherf et al.
# Submitted via: ExactAudioCopyFreeDBPlugin 1.0
#
DISCID=9e0ee019
DTITLE=Billy Walker - Cross the Brazos at Waco - Disc 3
DYEAR=1993
DGENRE=Country
TTITLE0=Kissing You
TTITLE1=You're The Only Good Thing (That's Happened To Me)
TTITLE2=Let Me Hear From You
TTITLE3=Let Me Hear From You
TTITLE4=Hey!
TTITLE5=Fool That I Am
TTITLE6=The Record
TTITLE7=Which One Of Us Is To Blame
TTITLE8=Let's Make Memories Tonight
TTITLE9=Whirlpool
TTITLE10=Go Ahead And Make Me Cry
TTITLE11=The Most Important Thing
TTITLE12=Can't You Love Me Just A Little
TTITLE13=Blue Mountain Waltz
TTITLE14=Why Does It Have To Be
TTITLE15=So Far
TTITLE16=Little Baggy Britches
TTITLE17=Leavin' On My Mind
TTITLE18=I'll Never Stand In Your Way
TTITLE19=Untamed Heart
TTITLE20=Especially For Fools
TTITLE21=If You Were Happy (Then I'm Satisfied)
TTITLE22=Headin' Down The Wrong Highway
TTITLE23=On My Mind Again
TTITLE24=Viva La Matador
EXTD=
EXTT0=
EXTT1=
EXTT2=
EXTT3=
EXTT4=
EXTT5=
EXTT6=
EXTT7=
EXTT8=
EXTT9=
EXTT10=
EXTT11=
EXTT12=
EXTT13=
EXTT14=
EXTT15=
EXTT16=
EXTT17=
EXTT18=
EXTT19=
EXTT20=
EXTT21=
EXTT22=
EXTT23=
EXTT24=
PLAYORDER=
